<mxfile host="65bd71144e">
    <diagram id="hr7Ch_WrsO__sEEtlqWu" name="Page-1">
        <mxGraphModel dx="483" dy="614" grid="1" gridSize="10" guides="1" tooltips="1" connect="1" arrows="1" fold="1" page="1" pageScale="1" pageWidth="850" pageHeight="1100" math="0" shadow="0">
            <root>
                <mxCell id="0"/>
                <mxCell id="1" parent="0"/>
                <mxCell id="2" value="&lt;font style=&quot;font-size: 28px&quot;&gt;后端&lt;/font&gt;" style="text;html=1;align=center;verticalAlign=middle;resizable=0;points=[];autosize=1;strokeColor=none;fillColor=none;sketch=1;fontFamily=Helvetica;" parent="1" vertex="1">
                    <mxGeometry x="70" y="135" width="70" height="30" as="geometry"/>
                </mxCell>
                <mxCell id="3" value="准备" style="text;html=1;align=center;verticalAlign=middle;resizable=0;points=[];autosize=1;strokeColor=none;fillColor=none;fontSize=28;sketch=1;fontFamily=Helvetica;" parent="1" vertex="1">
                    <mxGeometry x="400" y="135" width="70" height="40" as="geometry"/>
                </mxCell>
                <mxCell id="4" value="英语" style="text;html=1;align=center;verticalAlign=middle;resizable=0;points=[];autosize=1;strokeColor=none;fillColor=none;fontSize=28;sketch=1;fontFamily=Helvetica;" parent="1" vertex="1">
                    <mxGeometry x="660" y="140" width="70" height="40" as="geometry"/>
                </mxCell>
                <mxCell id="5" value="Shiro" style="whiteSpace=wrap;html=1;sketch=1;fontFamily=Helvetica;fillColor=#fff2cc;strokeColor=#d6b656;" parent="1" vertex="1">
                    <mxGeometry x="10" y="240" width="70" height="40" as="geometry"/>
                </mxCell>
                <mxCell id="13" style="edgeStyle=none;html=1;exitX=0.5;exitY=1;exitDx=0;exitDy=0;sketch=1;fontFamily=Helvetica;" parent="1" source="7" target="9" edge="1">
                    <mxGeometry relative="1" as="geometry"/>
                </mxCell>
                <mxCell id="16" style="edgeStyle=none;html=1;exitX=0.5;exitY=1;exitDx=0;exitDy=0;sketch=1;fontFamily=Helvetica;" parent="1" source="7" target="10" edge="1">
                    <mxGeometry relative="1" as="geometry"/>
                </mxCell>
                <mxCell id="7" value="Redis" style="whiteSpace=wrap;html=1;sketch=1;fontFamily=Helvetica;fillColor=#fff2cc;strokeColor=#d6b656;" parent="1" vertex="1">
                    <mxGeometry x="90" y="290" width="70" height="40" as="geometry"/>
                </mxCell>
                <mxCell id="17" style="edgeStyle=none;html=1;exitX=0.5;exitY=1;exitDx=0;exitDy=0;sketch=1;fontFamily=Helvetica;" parent="1" source="8" target="20" edge="1">
                    <mxGeometry relative="1" as="geometry"/>
                </mxCell>
                <mxCell id="8" value="Kafka" style="whiteSpace=wrap;html=1;sketch=1;fontFamily=Helvetica;" parent="1" vertex="1">
                    <mxGeometry x="180" y="230" width="70" height="40" as="geometry"/>
                </mxCell>
                <mxCell id="18" style="edgeStyle=none;html=1;exitX=0.5;exitY=1;exitDx=0;exitDy=0;sketch=1;fontFamily=Helvetica;" parent="1" source="9" target="11" edge="1">
                    <mxGeometry relative="1" as="geometry"/>
                </mxCell>
                <mxCell id="9" value="Spring Cloud" style="whiteSpace=wrap;html=1;sketch=1;fontFamily=Helvetica;" parent="1" vertex="1">
                    <mxGeometry x="40" y="380" width="70" height="40" as="geometry"/>
                </mxCell>
                <mxCell id="19" style="edgeStyle=none;html=1;exitX=0.5;exitY=1;exitDx=0;exitDy=0;sketch=1;fontFamily=Helvetica;" parent="1" source="10" target="11" edge="1">
                    <mxGeometry relative="1" as="geometry"/>
                </mxCell>
                <mxCell id="10" value="并发编程" style="whiteSpace=wrap;html=1;sketch=1;fontFamily=Helvetica;" parent="1" vertex="1">
                    <mxGeometry x="140" y="380" width="70" height="40" as="geometry"/>
                </mxCell>
                <mxCell id="11" value="Spring 内核" style="whiteSpace=wrap;html=1;sketch=1;fontFamily=Helvetica;" parent="1" vertex="1">
                    <mxGeometry x="90" y="450" width="70" height="40" as="geometry"/>
                </mxCell>
                <mxCell id="21" style="edgeStyle=none;html=1;exitX=0.5;exitY=1;exitDx=0;exitDy=0;sketch=1;fontFamily=Helvetica;" parent="1" source="20" target="9" edge="1">
                    <mxGeometry relative="1" as="geometry"/>
                </mxCell>
                <mxCell id="22" style="edgeStyle=none;html=1;exitX=0.5;exitY=1;exitDx=0;exitDy=0;sketch=1;fontFamily=Helvetica;" parent="1" source="20" target="10" edge="1">
                    <mxGeometry relative="1" as="geometry"/>
                </mxCell>
                <mxCell id="20" value="Oracle" style="whiteSpace=wrap;html=1;sketch=1;fontFamily=Helvetica;" parent="1" vertex="1">
                    <mxGeometry x="180" y="300" width="70" height="40" as="geometry"/>
                </mxCell>
                <mxCell id="24" value="" style="endArrow=none;dashed=1;html=1;dashPattern=1 3;strokeWidth=2;fontSize=28;sketch=1;fontFamily=Helvetica;" parent="1" edge="1">
                    <mxGeometry width="50" height="50" relative="1" as="geometry">
                        <mxPoint x="270" y="520" as="sourcePoint"/>
                        <mxPoint x="260" y="150" as="targetPoint"/>
                    </mxGeometry>
                </mxCell>
                <mxCell id="25" value="" style="endArrow=none;dashed=1;html=1;dashPattern=1 3;strokeWidth=2;fontSize=28;sketch=1;fontFamily=Helvetica;" parent="1" edge="1">
                    <mxGeometry width="50" height="50" relative="1" as="geometry">
                        <mxPoint x="600" y="520" as="sourcePoint"/>
                        <mxPoint x="590" y="150" as="targetPoint"/>
                    </mxGeometry>
                </mxCell>
                <mxCell id="27" value="Kafka" style="whiteSpace=wrap;html=1;sketch=1;fontFamily=Helvetica;fillColor=#fff2cc;strokeColor=#d6b656;" parent="1" vertex="1">
                    <mxGeometry x="180" y="230" width="70" height="40" as="geometry"/>
                </mxCell>
                <mxCell id="31" style="edgeStyle=none;html=1;exitX=0.5;exitY=1;exitDx=0;exitDy=0;fontSize=28;sketch=1;fontFamily=Helvetica;" parent="1" source="28" target="30" edge="1">
                    <mxGeometry relative="1" as="geometry"/>
                </mxCell>
                <mxCell id="45" style="edgeStyle=none;html=1;exitX=0.5;exitY=1;exitDx=0;exitDy=0;" parent="1" source="28" target="44" edge="1">
                    <mxGeometry relative="1" as="geometry"/>
                </mxCell>
                <mxCell id="28" value="React" style="whiteSpace=wrap;html=1;sketch=1;fontFamily=Helvetica;fillColor=#fff2cc;strokeColor=#d6b656;" parent="1" vertex="1">
                    <mxGeometry x="360" y="200" width="70" height="40" as="geometry"/>
                </mxCell>
                <mxCell id="30" value="TODO 项目前端" style="whiteSpace=wrap;html=1;sketch=1;fontFamily=Helvetica;" parent="1" vertex="1">
                    <mxGeometry x="300" y="300" width="70" height="40" as="geometry"/>
                </mxCell>
                <mxCell id="53" style="edgeStyle=none;html=1;exitX=0;exitY=0.5;exitDx=0;exitDy=0;fontSize=11;" parent="1" source="32" target="51" edge="1">
                    <mxGeometry relative="1" as="geometry"/>
                </mxCell>
                <mxCell id="55" style="edgeStyle=none;html=1;exitX=0.5;exitY=1;exitDx=0;exitDy=0;fontSize=11;" parent="1" source="32" target="34" edge="1">
                    <mxGeometry relative="1" as="geometry"/>
                </mxCell>
                <mxCell id="58" style="edgeStyle=none;html=1;exitX=0.5;exitY=1;exitDx=0;exitDy=0;" edge="1" parent="1" source="32" target="56">
                    <mxGeometry relative="1" as="geometry"/>
                </mxCell>
                <mxCell id="32" value="MERN" style="whiteSpace=wrap;html=1;sketch=1;fontFamily=Helvetica;" parent="1" vertex="1">
                    <mxGeometry x="480" y="330" width="70" height="40" as="geometry"/>
                </mxCell>
                <mxCell id="59" style="edgeStyle=none;html=1;exitX=1;exitY=0.5;exitDx=0;exitDy=0;" edge="1" parent="1" source="34" target="56">
                    <mxGeometry relative="1" as="geometry"/>
                </mxCell>
                <mxCell id="34" value="博客重构" style="whiteSpace=wrap;html=1;sketch=1;fontFamily=Helvetica;" parent="1" vertex="1">
                    <mxGeometry x="360" y="460" width="70" height="40" as="geometry"/>
                </mxCell>
                <mxCell id="36" value="文档阅读，&lt;br&gt;编写能力" style="whiteSpace=wrap;html=1;sketch=1;fontFamily=Helvetica;fillColor=#fff2cc;strokeColor=#d6b656;" parent="1" vertex="1">
                    <mxGeometry x="750" y="210" width="80" height="40" as="geometry"/>
                </mxCell>
                <mxCell id="37" value="WORKING" style="whiteSpace=wrap;html=1;sketch=1;fontFamily=Helvetica;fillColor=#fff2cc;strokeColor=#d6b656;" parent="1" vertex="1">
                    <mxGeometry x="50" y="70" width="70" height="40" as="geometry"/>
                </mxCell>
                <mxCell id="38" value="DONE" style="whiteSpace=wrap;html=1;sketch=1;fontFamily=Helvetica;fillColor=#dae8fc;strokeColor=#6c8ebf;" parent="1" vertex="1">
                    <mxGeometry x="150" y="70" width="70" height="40" as="geometry"/>
                </mxCell>
                <mxCell id="43" value="&lt;font style=&quot;font-size: 12px&quot;&gt;?&lt;/font&gt;" style="edgeLabel;html=1;align=center;verticalAlign=middle;resizable=0;points=[];fontSize=28;fontFamily=Helvetica;" parent="1" vertex="1" connectable="0">
                    <mxGeometry x="434.9997874447715" y="269.99966609769166" as="geometry"/>
                </mxCell>
                <mxCell id="46" value="?" style="edgeStyle=none;html=1;exitX=0.5;exitY=1;exitDx=0;exitDy=0;" parent="1" source="44" target="32" edge="1">
                    <mxGeometry relative="1" as="geometry"/>
                </mxCell>
                <mxCell id="44" value="Webpack" style="whiteSpace=wrap;html=1;sketch=1;fontFamily=Helvetica;" parent="1" vertex="1">
                    <mxGeometry x="425" y="260" width="70" height="40" as="geometry"/>
                </mxCell>
                <mxCell id="48" value="邮件阅读，编写能力" style="whiteSpace=wrap;html=1;sketch=1;fontFamily=Helvetica;fillColor=#fff2cc;strokeColor=#d6b656;" parent="1" vertex="1">
                    <mxGeometry x="630" y="280" width="80" height="40" as="geometry"/>
                </mxCell>
                <mxCell id="49" value="&lt;b&gt;需求商讨，&lt;br&gt;听说能力&lt;/b&gt;" style="whiteSpace=wrap;html=1;sketch=1;fontFamily=Helvetica;fillColor=#fff2cc;strokeColor=#d6b656;" parent="1" vertex="1">
                    <mxGeometry x="630" y="210" width="80" height="40" as="geometry"/>
                </mxCell>
                <mxCell id="50" value="……" style="whiteSpace=wrap;html=1;sketch=1;fontFamily=Helvetica;fillColor=#fff2cc;strokeColor=#d6b656;" parent="1" vertex="1">
                    <mxGeometry x="740" y="290" width="80" height="40" as="geometry"/>
                </mxCell>
                <mxCell id="54" style="edgeStyle=none;html=1;exitX=0.5;exitY=1;exitDx=0;exitDy=0;fontSize=11;" parent="1" source="51" target="34" edge="1">
                    <mxGeometry relative="1" as="geometry"/>
                </mxCell>
                <mxCell id="57" style="edgeStyle=none;html=1;exitX=0.5;exitY=1;exitDx=0;exitDy=0;" edge="1" parent="1" source="51" target="56">
                    <mxGeometry relative="1" as="geometry"/>
                </mxCell>
                <mxCell id="51" value="HTML, CSS" style="whiteSpace=wrap;html=1;sketch=1;fontFamily=Helvetica;" parent="1" vertex="1">
                    <mxGeometry x="380" y="360" width="70" height="40" as="geometry"/>
                </mxCell>
                <mxCell id="56" value="尝试接单" style="whiteSpace=wrap;html=1;sketch=1;fontFamily=Helvetica;" vertex="1" parent="1">
                    <mxGeometry x="470" y="490" width="70" height="40" as="geometry"/>
                </mxCell>
                <mxCell id="60" value="长期的目标当然是全栈，但暂且……" style="text;html=1;align=center;verticalAlign=middle;resizable=0;points=[];autosize=1;strokeColor=none;fillColor=none;" vertex="1" parent="1">
                    <mxGeometry x="280" y="80" width="210" height="20" as="geometry"/>
                </mxCell>
            </root>
        </mxGraphModel>
    </diagram>
</mxfile>